<?xml version="1.0" encoding="utf-8"?>
<!-- Generator: Adobe Illustrator 22.0.0, SVG Export Plug-In . SVG Version: 6.00 Build 0)  -->
<svg xmlns="http://www.w3.org/2000/svg" xmlns:xlink="http://www.w3.org/1999/xlink" version="1.1" id="Layer_2" x="0px" y="0px" viewBox="0 0 256 256" style="enable-background:new 0 0 256 256;" xml:space="preserve" width="512" height="512">
<style type="text/css">
	.st0{fill:#87796F;}
	.st1{fill:#3A312A;}
	.st2{fill:#D7E057;}
	.st3{fill:#F16C7A;}
	.st4{fill:#8AC6DD;}
	.st5{fill:#FCE8CB;}
	.st6{fill:#695B51;}
	.st7{fill:#D34E5C;}
	.st8{fill:#6CA8BF;}
	.st9{fill:#B9C239;}
	.st10{fill:#DECAAD;}
	.st11{fill:#B9BC39;}
	.st12{fill-rule:evenodd;clip-rule:evenodd;fill:#87796F;}
	.st13{fill-rule:evenodd;clip-rule:evenodd;fill:#FCE8CB;}
	.st14{fill-rule:evenodd;clip-rule:evenodd;fill:#F16C7A;}
	.st15{fill:#F5978A;}
</style>
<g>
	<g>
		<g>
			<path class="st2" d="M223.424,16.365H32.576c-8.873,0-16.065,7.193-16.065,16.065v112.625c0,8.873,7.193,16.065,16.065,16.065     h190.849c8.872,0,16.065-7.192,16.065-16.065V32.43C239.49,23.557,232.297,16.365,223.424,16.365z"/>
		</g>
	</g>
	<g>
		<g>
			<path class="st1" d="M223.425,14.865H32.576c-9.686,0-17.565,7.879-17.565,17.565v13.369c0,0.829,0.671,1.5,1.5,1.5     c0.829,0,1.5-0.671,1.5-1.5V32.43c0-8.031,6.534-14.565,14.565-14.565h190.849c8.031,0,14.564,6.534,14.564,14.565v112.625     c0,8.031-6.533,14.565-14.564,14.565H32.576c-8.031,0-14.565-6.534-14.565-14.565V62.686c0-0.829-0.671-1.5-1.5-1.5     c-0.829,0-1.5,0.671-1.5,1.5v82.369c0,9.686,7.88,17.565,17.565,17.565h190.849c9.686,0,17.564-7.879,17.564-17.565V32.43     C240.989,22.744,233.11,14.865,223.425,14.865z"/>
		</g>
	</g>
	<g>
		<g>
			
				<ellipse transform="matrix(0.9975 -0.0709 0.0709 0.9975 -6.953 5.5669)" class="st0" cx="74.955" cy="100.742" rx="45.955" ry="45.955"/>
		</g>
	</g>
	<g>
		<g>
			<path class="st1" d="M74.955,53.288c-26.167,0-47.455,21.288-47.455,47.455s21.288,47.455,47.455,47.455     s47.455-21.288,47.455-47.455S101.121,53.288,74.955,53.288z M74.955,145.197c-24.512,0-44.455-19.942-44.455-44.455     s19.942-44.455,44.455-44.455s44.455,19.942,44.455,44.455S99.467,145.197,74.955,145.197z"/>
		</g>
	</g>
	<g>
		<g>
			<circle class="st4" cx="74.955" cy="100.742" r="37.649"/>
		</g>
	</g>
	<g>
		<g>
			<path class="st1" d="M74.955,61.594c-21.587,0-39.149,17.562-39.149,39.148c0,21.587,17.562,39.149,39.149,39.149     s39.149-17.562,39.149-39.149C114.103,79.156,96.542,61.594,74.955,61.594z M74.955,136.891     c-19.933,0-36.149-16.216-36.149-36.149c0-19.932,16.216-36.148,36.149-36.148s36.149,16.216,36.149,36.148     C111.103,120.675,94.887,136.891,74.955,136.891z"/>
		</g>
	</g>
	<g>
		<g>
			<path class="st1" d="M100.61,71.688H49.299c-0.829,0-1.5,0.671-1.5,1.5s0.671,1.5,1.5,1.5h51.312c0.829,0,1.5-0.671,1.5-1.5     S101.439,71.688,100.61,71.688z"/>
		</g>
	</g>
	<g>
		<g>
			<path class="st1" d="M110,85.465H39.909c-0.829,0-1.5,0.671-1.5,1.5s0.671,1.5,1.5,1.5H110c0.829,0,1.5-0.671,1.5-1.5     S110.829,85.465,110,85.465z"/>
		</g>
	</g>
	<g>
		<g>
			<path class="st1" d="M112.603,99.242H37.306c-0.829,0-1.5,0.671-1.5,1.5s0.671,1.5,1.5,1.5h75.298c0.829,0,1.5-0.671,1.5-1.5     S113.432,99.242,112.603,99.242z"/>
		</g>
	</g>
	<g>
		<g>
			<path class="st1" d="M110,113.02H39.909c-0.829,0-1.5,0.671-1.5,1.5s0.671,1.5,1.5,1.5H110c0.829,0,1.5-0.671,1.5-1.5     S110.829,113.02,110,113.02z"/>
		</g>
	</g>
	<g>
		<g>
			<path class="st1" d="M100.61,126.797H49.299c-0.829,0-1.5,0.671-1.5,1.5s0.671,1.5,1.5,1.5h51.312c0.829,0,1.5-0.671,1.5-1.5     S101.439,126.797,100.61,126.797z"/>
		</g>
	</g>
	<g>
		<g>
			<path class="st2" d="M84.503,94.195H65.406c-3.616,0-6.548,2.931-6.548,6.547s2.932,6.548,6.548,6.548h19.097     c3.616,0,6.548-2.931,6.548-6.548S88.12,94.195,84.503,94.195z"/>
		</g>
	</g>
	<g>
		<g>
			<path class="st1" d="M84.503,92.695H65.406c-4.438,0-8.048,3.61-8.048,8.047s3.61,8.048,8.048,8.048h19.097     c4.438,0,8.047-3.61,8.047-8.048S88.941,92.695,84.503,92.695z M84.503,105.79H65.406c-2.783,0-5.048-2.265-5.048-5.048     s2.265-5.047,5.048-5.047h19.097c2.783,0,5.047,2.264,5.047,5.047S87.287,105.79,84.503,105.79z"/>
		</g>
	</g>
	<g>
		<g>
			<circle class="st0" cx="181.045" cy="100.742" r="45.955"/>
		</g>
	</g>
	<g>
		<g>
			<path class="st1" d="M181.045,53.288c-26.166,0-47.454,21.288-47.454,47.455s21.288,47.455,47.454,47.455     c26.167,0,47.455-21.288,47.455-47.455S207.212,53.288,181.045,53.288z M181.045,145.197c-24.512,0-44.454-19.942-44.454-44.455     s19.942-44.455,44.454-44.455c24.513,0,44.455,19.942,44.455,44.455S205.558,145.197,181.045,145.197z"/>
		</g>
	</g>
	<g>
		<g>
			
				<ellipse transform="matrix(0.9951 -0.0985 0.0985 0.9951 -9.0459 18.3301)" class="st4" cx="181.045" cy="100.742" rx="37.649" ry="37.649"/>
		</g>
	</g>
	<g>
		<g>
			<path class="st1" d="M181.045,61.594c-21.587,0-39.148,17.562-39.148,39.148c0,21.587,17.562,39.149,39.148,39.149     c21.587,0,39.149-17.562,39.149-39.149C220.194,79.156,202.632,61.594,181.045,61.594z M181.045,136.891     c-19.933,0-36.148-16.216-36.148-36.149c0-19.932,16.216-36.148,36.148-36.148c19.933,0,36.149,16.216,36.149,36.148     C217.194,120.675,200.977,136.891,181.045,136.891z"/>
		</g>
	</g>
	<g>
		<g>
			<path class="st1" d="M206.701,71.688H155.39c-0.828,0-1.5,0.671-1.5,1.5s0.672,1.5,1.5,1.5h51.312c0.828,0,1.5-0.671,1.5-1.5     S207.529,71.688,206.701,71.688z"/>
		</g>
	</g>
	<g>
		<g>
			<path class="st1" d="M216.092,85.465h-70.093c-0.828,0-1.5,0.671-1.5,1.5s0.672,1.5,1.5,1.5h70.093c0.828,0,1.5-0.671,1.5-1.5     S216.92,85.465,216.092,85.465z"/>
		</g>
	</g>
	<g>
		<g>
			<path class="st1" d="M218.694,99.242h-75.298c-0.828,0-1.5,0.671-1.5,1.5s0.672,1.5,1.5,1.5h75.298c0.828,0,1.5-0.671,1.5-1.5     S219.522,99.242,218.694,99.242z"/>
		</g>
	</g>
	<g>
		<g>
			<path class="st1" d="M216.092,113.02h-70.093c-0.828,0-1.5,0.671-1.5,1.5s0.672,1.5,1.5,1.5h70.093c0.828,0,1.5-0.671,1.5-1.5     S216.92,113.02,216.092,113.02z"/>
		</g>
	</g>
	<g>
		<g>
			<path class="st1" d="M206.701,126.797H155.39c-0.828,0-1.5,0.671-1.5,1.5s0.672,1.5,1.5,1.5h51.312c0.828,0,1.5-0.671,1.5-1.5     S207.529,126.797,206.701,126.797z"/>
		</g>
	</g>
	<g>
		<g>
			<path class="st2" d="M190.594,94.195h-19.097c-3.616,0-6.548,2.931-6.548,6.547s2.931,6.548,6.548,6.548h19.097     c3.616,0,6.548-2.931,6.548-6.548S194.21,94.195,190.594,94.195z"/>
		</g>
	</g>
	<g>
		<g>
			<path class="st1" d="M190.594,92.695h-19.097c-4.438,0-8.048,3.61-8.048,8.047s3.61,8.048,8.048,8.048h19.097     c4.438,0,8.048-3.61,8.048-8.048S195.031,92.695,190.594,92.695z M190.594,105.79h-19.097c-2.783,0-5.048-2.265-5.048-5.048     s2.265-5.047,5.048-5.047h19.097c2.783,0,5.048,2.264,5.048,5.047S193.377,105.79,190.594,105.79z"/>
		</g>
	</g>
	<g>
		<g>
			<path class="st1" d="M42.038,238.33c-2.365-2.365-3.66-5.509-3.648-8.854c0.012-3.344,1.331-6.479,3.713-8.826     c2.941-2.897,4.577-6.767,4.607-10.895c0.03-4.128-1.549-8.021-4.447-10.963l-0.435-0.44c-4.785-4.856-4.756-12.729,0.068-17.553     l0.07-0.071c0.583-0.587,0.545-1.5-0.041-2.084c-0.586-0.584-1.569-0.548-2.154,0.038c-5.982,5.982-6.018,15.751-0.079,21.777     l0.435,0.44c2.335,2.37,3.608,5.507,3.583,8.834c-0.024,3.327-1.343,6.445-3.713,8.78c-2.956,2.912-4.592,6.801-4.607,10.951     c-0.016,4.15,1.592,8.051,4.527,10.987l0.246,0.245c0.293,0.292,0.676,0.438,1.06,0.438c0.384,0,0.769-0.147,1.062-0.44     c0.585-0.586,0.584-1.536-0.002-2.121L42.038,238.33z"/>
		</g>
	</g>
	<g>
		<g>
			<path class="st1" d="M62.165,238.33c-2.365-2.365-3.66-5.509-3.648-8.853c0.013-3.344,1.331-6.479,3.713-8.826     c2.941-2.897,4.577-6.767,4.607-10.895s-1.549-8.021-4.447-10.963l-0.435-0.44c-4.785-4.856-4.757-12.729,0.064-17.55     l0.071-0.071c0.586-0.585,0.586-1.536,0-2.121c-0.586-0.586-1.535-0.586-2.121,0l-0.071,0.071     c-5.982,5.982-6.018,15.75-0.079,21.777l0.435,0.44c2.335,2.37,3.608,5.507,3.583,8.834c-0.024,3.327-1.343,6.445-3.713,8.78     c-2.956,2.913-4.592,6.802-4.608,10.952c-0.015,4.15,1.592,8.051,4.528,10.986l0.246,0.245c0.293,0.292,0.676,0.438,1.06,0.438     c0.384,0,0.768-0.147,1.062-0.44c0.585-0.586,0.584-1.536-0.002-2.121L62.165,238.33z"/>
		</g>
	</g>
	<g>
		<g>
			<path class="st1" d="M80.954,238.33c-2.365-2.365-3.66-5.509-3.648-8.854c0.012-3.344,1.331-6.479,3.713-8.826     c2.941-2.897,4.577-6.767,4.608-10.895c0.03-4.128-1.549-8.021-4.447-10.963l-0.435-0.44c-4.785-4.856-4.756-12.729,0.064-17.55     l0.071-0.071c0.586-0.585,0.586-1.536,0-2.121c-0.586-0.586-1.535-0.586-2.121,0l-0.071,0.071     c-5.982,5.982-6.018,15.751-0.079,21.777l0.435,0.44c2.335,2.37,3.608,5.507,3.584,8.834c-0.025,3.327-1.343,6.445-3.713,8.78     c-2.956,2.912-4.592,6.801-4.607,10.951c-0.016,4.15,1.592,8.051,4.527,10.987l0.246,0.245c0.293,0.292,0.676,0.438,1.06,0.438     c0.384,0,0.768-0.147,1.062-0.44c0.585-0.586,0.584-1.536-0.002-2.121L80.954,238.33z"/>
		</g>
	</g>
	<g>
		<g>
			<path class="st1" d="M101.082,238.33c-2.365-2.365-3.66-5.509-3.648-8.853c0.013-3.344,1.331-6.479,3.713-8.826     c2.941-2.897,4.577-6.767,4.607-10.895s-1.549-8.021-4.447-10.963l-0.435-0.44c-4.785-4.856-4.757-12.729,0.064-17.55     l0.071-0.071c0.586-0.585,0.586-1.536,0-2.121c-0.586-0.586-1.535-0.586-2.121,0l-0.071,0.071     c-5.982,5.982-6.018,15.75-0.079,21.777l0.435,0.44c2.335,2.37,3.608,5.507,3.583,8.834c-0.024,3.327-1.343,6.445-3.713,8.78     c-2.956,2.913-4.592,6.802-4.608,10.952c-0.015,4.15,1.592,8.051,4.528,10.986l0.246,0.245c0.293,0.292,0.676,0.438,1.06,0.438     c0.384,0,0.768-0.147,1.061-0.44c0.586-0.586,0.585-1.536-0.002-2.121L101.082,238.33z"/>
		</g>
	</g>
	<g>
		<g>
			<path class="st1" d="M157.038,238.33c-2.365-2.365-3.661-5.51-3.648-8.854c0.013-3.344,1.331-6.478,3.713-8.825     c2.941-2.897,4.578-6.767,4.608-10.895c0.03-4.128-1.549-8.021-4.447-10.962l-0.435-0.441     c-4.786-4.856-4.758-12.729,0.067-17.553l0.07-0.071c0.583-0.587,0.545-1.5-0.041-2.084c-0.585-0.585-1.569-0.549-2.154,0.037     c-5.982,5.982-6.018,15.751-0.079,21.776l0.435,0.441c2.335,2.37,3.608,5.507,3.584,8.834c-0.024,3.327-1.344,6.445-3.714,8.78     c-2.956,2.912-4.592,6.801-4.607,10.951c-0.016,4.15,1.593,8.052,4.527,10.986l0.245,0.245c0.293,0.293,0.677,0.439,1.061,0.439     c0.384,0,0.768-0.146,1.061-0.439c0.586-0.585,0.586-1.536,0-2.121L157.038,238.33z"/>
		</g>
	</g>
	<g>
		<g>
			<path class="st1" d="M177.165,238.33c-2.364-2.365-3.66-5.51-3.647-8.854c0.013-3.344,1.332-6.478,3.714-8.825     c6.07-5.982,6.142-15.787,0.159-21.858l-0.435-0.439c-4.785-4.856-4.756-12.729,0.068-17.553l0.07-0.071     c0.583-0.587,0.545-1.5-0.041-2.084c-0.585-0.585-1.569-0.549-2.154,0.037c-5.982,5.982-6.018,15.751-0.079,21.778l0.435,0.439     c2.335,2.37,3.607,5.507,3.583,8.834c-0.024,3.327-1.343,6.445-3.713,8.78c-2.956,2.912-4.592,6.801-4.607,10.951     c-0.016,4.15,1.592,8.052,4.528,10.989l0.246,0.245c0.293,0.292,0.676,0.437,1.059,0.437c0.385,0,0.769-0.147,1.062-0.441     c0.585-0.587,0.583-1.537-0.004-2.122L177.165,238.33z"/>
		</g>
	</g>
	<g>
		<g>
			<path class="st1" d="M195.954,238.33c-2.364-2.365-3.66-5.509-3.648-8.853c0.012-3.344,1.331-6.479,3.713-8.826     c2.941-2.897,4.577-6.767,4.608-10.895c0.03-4.128-1.549-8.021-4.447-10.962l-0.435-0.441c-4.785-4.856-4.757-12.729,0.06-17.546     l0.071-0.071c0.588-0.584,0.592-1.534,0.008-2.122c-0.583-0.587-1.533-0.591-2.121-0.007l-0.075,0.075     c-5.981,5.982-6.017,15.751-0.079,21.776l0.435,0.441c2.336,2.37,3.608,5.507,3.584,8.834c-0.025,3.327-1.343,6.445-3.713,8.78     c-2.956,2.913-4.593,6.802-4.607,10.952c-0.016,4.15,1.592,8.051,4.526,10.985l0.245,0.245c0.293,0.293,0.677,0.439,1.061,0.439     s0.768-0.146,1.06-0.439c0.586-0.585,0.586-1.536,0-2.121L195.954,238.33z"/>
		</g>
	</g>
	<g>
		<g>
			<path class="st1" d="M216.082,238.33c-2.364-2.365-3.66-5.509-3.647-8.853c0.012-3.344,1.331-6.479,3.713-8.826     c6.07-5.981,6.143-15.786,0.16-21.858l-0.435-0.439c-4.785-4.856-4.756-12.729,0.068-17.553l0.07-0.071     c0.583-0.587,0.545-1.5-0.041-2.084c-0.586-0.585-1.57-0.549-2.154,0.037c-5.982,5.982-6.018,15.751-0.079,21.778l0.435,0.439     c4.82,4.893,4.762,12.794-0.13,17.615c-2.956,2.913-4.593,6.802-4.607,10.952c-0.016,4.15,1.592,8.051,4.528,10.988l0.246,0.245     c0.293,0.292,0.676,0.437,1.059,0.437c0.385,0,0.769-0.147,1.062-0.441c0.585-0.587,0.583-1.537-0.004-2.122L216.082,238.33z"/>
		</g>
	</g>
	<g>
		<g>
			<path class="st3" d="M98.249,28.264H53.952c-4.557,0-8.251,3.694-8.251,8.251c0,4.557,3.694,8.251,8.251,8.251h44.297     c4.557,0,8.251-3.694,8.251-8.251C106.5,31.958,102.806,28.264,98.249,28.264z"/>
		</g>
	</g>
	<g>
		<g>
			<path class="st1" d="M98.249,26.764H53.952c-5.376,0-9.751,4.374-9.751,9.751s4.375,9.751,9.751,9.751h44.297     c5.376,0,9.751-4.374,9.751-9.751S103.625,26.764,98.249,26.764z M98.249,43.266H53.952c-3.723,0-6.751-3.028-6.751-6.751     s3.028-6.751,6.751-6.751h44.297c3.723,0,6.751,3.028,6.751,6.751S101.972,43.266,98.249,43.266z"/>
		</g>
	</g>
	<g>
		<g>
			<path class="st3" d="M203.048,28.264h-44.297c-4.557,0-8.251,3.694-8.251,8.251c0,4.557,3.694,8.251,8.251,8.251h44.297     c4.557,0,8.251-3.694,8.251-8.251C211.299,31.958,207.605,28.264,203.048,28.264z"/>
		</g>
	</g>
	<g>
		<g>
			<path class="st1" d="M203.048,26.764h-9.139c-0.828,0-1.5,0.671-1.5,1.5s0.672,1.5,1.5,1.5h9.139     c3.723,0,6.751,3.028,6.751,6.751s-3.028,6.751-6.751,6.751h-44.297c-3.723,0-6.751-3.028-6.751-6.751s3.028-6.751,6.751-6.751     h18.84c0.828,0,1.5-0.671,1.5-1.5s-0.672-1.5-1.5-1.5h-18.84c-5.377,0-9.751,4.374-9.751,9.751s4.374,9.751,9.751,9.751h44.297     c5.377,0,9.751-4.374,9.751-9.751S208.425,26.764,203.048,26.764z"/>
		</g>
	</g>
	<g>
		<g>
			<path class="st9" d="M223.42,17.862h-15c8.04,0,14.57,6.54,14.57,14.57v46.14c3.52,6.62,5.51,14.17,5.51,22.17     s-1.99,15.55-5.51,22.17v22.14c0,8.03-6.53,14.57-14.57,14.57h15c8.04,0,14.57-6.54,14.57-14.57V32.432     C237.99,24.402,231.46,17.862,223.42,17.862z"/>
		</g>
	</g>
</g>
</svg>
