<svg id="Layer_1" enable-background="new 0 0 512 512" height="512" viewBox="0 0 512 512" width="512" xmlns="http://www.w3.org/2000/svg"><g><path d="m80.848 261.014v-239.758c0-11.739 9.517-21.256 21.256-21.256h307.791c11.739 0 21.256 9.517 21.256 21.256v239.758c0 11.739-9.517 21.256-21.256 21.256h-307.791c-11.739 0-21.256-9.517-21.256-21.256z" fill="#497285"/><path d="m409.894 0h-30.909c11.74 0 21.257 9.516 21.257 21.255v239.76c0 11.739-9.517 21.255-21.257 21.255h30.909c11.74 0 21.257-9.516 21.257-21.255v-239.76c.001-11.739-9.517-21.255-21.257-21.255z" fill="#426778"/><path d="m394.466 251.364h-276.932c-3.19 0-5.776-2.586-5.776-5.776v-208.906c0-3.19 2.586-5.776 5.776-5.776h276.933c3.19 0 5.776 2.586 5.776 5.776v208.907c-.001 3.189-2.587 5.775-5.777 5.775z" fill="#3a5a69"/><path d="m111.758 56.641h288.485v61.811h-288.485z" fill="#d2d5d4"/><path d="m369.333 56.641h30.909v61.811h-30.909z" fill="#c7c9c8"/><path d="m111.758 155.302h288.485v61.811h-288.485z" fill="#d2d5d4"/><path d="m369.333 155.302h30.909v61.811h-30.909z" fill="#c7c9c8"/><g fill="#b9f5ff"><path d="m321.249 443.566-62.187 67.097c-1.652 1.783-4.472 1.783-6.124 0l-62.187-67.097c-.95-1.025-.223-2.69 1.175-2.69h41.408v-322.424h45.333v322.423h41.408c1.397.001 2.124 1.666 1.174 2.691z"/><g><path d="m131.833 430.905-85.983 31.202c-1.331.483-2.792-.269-3.172-1.632l-24.585-88.093c-.57-2.044 1.568-3.787 3.455-2.816l35.129 18.075s78.289-106.34 90.251-269.189h37.718c-10.191 186.259-87.659 289.93-87.659 289.93l35.129 18.075c1.888.971 1.712 3.724-.283 4.448z"/><path d="m380.167 430.905 85.983 31.202c1.331.483 2.792-.269 3.172-1.632l24.585-88.093c.57-2.044-1.568-3.787-3.455-2.816l-35.129 18.075s-78.289-106.34-90.251-269.189h-37.718c10.191 186.259 87.659 289.93 87.659 289.93l-35.129 18.075c-1.888.971-1.712 3.724.283 4.448z"/></g></g></g></svg>