<svg id="Capa_1" enable-background="new 0 0 512 512" height="512" viewBox="0 0 512 512" width="512" xmlns="http://www.w3.org/2000/svg"><g><g><path d="m503.97 336.721v-289.482c0-21.954-17.797-39.751-39.751-39.751h-272.743c-23.272 0-45.433 9.953-60.892 27.349l-93.461 105.17c-18.688 21.031-29.012 48.188-29.012 76.323v90.12s-1.192 25.697 5.875 56.475c12.472 54.321 61.039 92.687 116.773 92.687h333.272c22.058 0 39.939-17.881 39.939-39.939z" fill="#86e8d0"/></g><g><path d="m503.973 47.235v368.438c0 22.055-17.881 39.936-39.946 39.936h-19.968c22.065 0 39.946-17.881 39.946-39.936v-368.438c0-21.955-17.801-39.746-39.756-39.746h19.968c21.954 0 39.756 17.792 39.756 39.746z" fill="#5de1c4"/></g><g><g><path d="m443.133 55.477h-234.094c-10.505 0-20.488 4.58-27.341 12.542l-99.083 115.137c-5.698 6.621-.994 16.874 7.741 16.874h352.777c5.64 0 10.213-4.572 10.213-10.213v-124.127c0-5.64-4.573-10.213-10.213-10.213z" fill="#dff6fd"/></g></g><g><g><path d="m453.344 65.686v124.131c0 5.641-4.573 10.214-10.214 10.214h-20.287c5.641 0 10.214-4.573 10.214-10.214v-124.131c0-5.631-4.573-10.204-10.214-10.204h20.287c5.641 0 10.214 4.573 10.214 10.204z" fill="#c8effe"/></g></g><g><circle cx="254.806" cy="427.368" fill="#fee45a" r="77.144"/></g><g><path d="m331.949 427.365c0 42.612-34.535 77.146-77.146 77.146-16.384 0-31.579-5.112-44.069-13.828 7.578 2.496 15.685 3.844 24.101 3.844 42.612 0 77.146-34.535 77.146-77.146 0-26.218-13.079-49.381-33.077-63.308 30.8 10.113 53.045 39.107 53.045 73.292z" fill="#fac600"/></g><g><path d="m445.61 304.422h-64.643c-4.205 0-7.614-3.409-7.614-7.614v-5.846c0-10.762 8.724-19.487 19.487-19.487h40.899c10.762 0 19.487 8.724 19.487 19.487v5.846c-.002 4.205-3.411 7.614-7.616 7.614z" fill="#7a8c98"/></g><g><path d="m453.224 290.964v5.841c0 4.213-3.405 7.618-7.618 7.618h-19.968c4.213 0 7.618-3.405 7.618-7.618v-5.841c0-10.763-8.726-19.489-19.489-19.489h19.968c10.763 0 19.489 8.726 19.489 19.489z" fill="#596c76"/></g><g><g><path d="m453.224 64.128v24.481h-220.578c-6.551 0-12.682 3.224-16.395 8.621l-4.064 5.906c-3.337 4.85-8.847 7.747-14.735 7.747h-52.633l36.881-42.861c6.849-7.967 16.833-12.54 27.336-12.54h234.094c5.112 0 9.345 3.754 10.094 8.646z" fill="#9facba"/></g><g><path d="m453.224 64.128v24.481h-20.168v-22.923c0-5.631-4.573-10.204-10.214-10.204h20.287c5.113 0 9.346 3.754 10.095 8.646z" fill="#8d9ca8"/></g></g><g><path d="m319.349 166.864c1.349 1.017 2.931 1.507 4.5 1.507 2.271 0 4.515-1.029 5.987-2.982l18.081-24.003c2.488-3.303 1.828-7.998-1.475-10.486-3.302-2.487-7.998-1.828-10.486 1.475l-18.081 24.003c-2.49 3.303-1.83 7.998 1.474 10.486z"/><path d="m359.575 154.863c1.349 1.017 2.931 1.507 4.5 1.507 2.271 0 4.515-1.029 5.986-2.982l18.081-24.003c2.488-3.303 1.828-7.998-1.475-10.486-3.301-2.488-7.998-1.828-10.486 1.475l-18.081 24.002c-2.488 3.304-1.828 7.999 1.475 10.487z"/><path d="m460.833 81.29c-.04.005-.121-17.161-.121-17.161 0-.379-.029-.758-.086-1.133-1.309-8.552-8.83-15.001-17.496-15.001h-234.093c-12.706 0-24.74 5.521-33.013 15.144l-99.084 115.132c-4.569 5.31-5.593 12.562-2.672 18.928 2.92 6.366 9.085 10.32 16.088 10.32h352.777c9.76 0 17.7-7.94 17.7-17.701zm-273.455-8.387c5.427-6.313 13.321-9.933 21.659-9.933h234.093c1.203 0 2.263.8 2.606 1.915v16.236h-213.09c-9.018 0-17.453 4.435-22.564 11.864l-4.065 5.908c-1.939 2.82-5.141 4.503-8.564 4.503h-36.312zm258.479 116.915c0 1.503-1.222 2.725-2.724 2.725h-352.777c-1.521 0-2.204-.995-2.476-1.588-.272-.594-.581-1.762.411-2.914l59.955-69.669h49.207c8.355 0 16.169-4.11 20.903-10.991l4.064-5.907c2.317-3.367 6.14-5.377 10.227-5.377h213.211v93.721z"/><path d="m433.737 263.987h-40.898c-14.874 0-26.974 12.101-26.974 26.974v5.846c0 8.327 6.774 15.103 15.102 15.103h64.643c8.328 0 15.103-6.775 15.103-15.103v-5.846c-.001-14.873-12.101-26.974-26.976-26.974zm11.999 32.821c0 .07-.057.127-.127.127h-64.643c-.069 0-.126-.057-.126-.127v-5.846c0-6.616 5.382-11.998 11.998-11.998h40.898c6.616 0 11.999 5.382 11.999 11.998v5.846z"/><path d="m503.97 117.028c4.136 0 7.488-3.352 7.488-7.488v-62.301c0-26.048-21.191-47.239-47.239-47.239h-272.743c-25.389 0-49.623 10.885-66.489 29.863l-93.461 105.17c-19.928 22.426-30.903 51.298-30.903 81.297v89.961c-.106 2.616-.911 27.926 6.066 58.31 6.405 27.896 22.319 53.079 44.81 70.906 22.448 17.794 50.597 27.594 79.26 27.594h47.353c13.498 28.854 42.792 48.9 76.694 48.9s63.196-20.046 76.693-48.9h132.532c26.151 0 47.427-21.275 47.427-47.427v-271.477c0-4.136-3.352-7.488-7.488-7.488s-7.488 3.352-7.488 7.488v271.476c0 17.893-14.558 32.451-32.451 32.451h-127.177c1.682-6.644 2.583-13.596 2.583-20.756 0-46.666-37.965-84.633-84.632-84.633-21.021 0-41.177 7.759-56.754 21.849-3.066 2.775-3.304 7.509-.531 10.577 2.775 3.067 7.51 3.304 10.577.53 12.818-11.594 29.406-17.98 46.707-17.98 38.408 0 69.656 31.248 69.656 69.657 0 38.408-31.248 69.656-69.656 69.656-38.409 0-69.657-31.248-69.657-69.656 0-9.299 1.8-18.322 5.35-26.82 1.593-3.816-.208-8.202-4.024-9.796-3.818-1.594-8.202.208-9.796 4.024-4.317 10.337-6.506 21.302-6.506 32.592 0 7.159.902 14.111 2.583 20.756h-41.998c-25.3 0-50.145-8.649-69.958-24.354-19.835-15.723-33.87-37.926-39.517-62.521-6.731-29.319-5.704-54.209-5.693-54.452.005-.116.008-.231.008-.347v-90.12c0-26.329 9.632-51.668 27.121-71.348l93.461-105.171c14.025-15.783 34.179-24.835 55.294-24.835h272.743c17.79 0 32.264 14.473 32.264 32.262v62.301c.003 4.137 3.355 7.489 7.491 7.489z"/><path d="m233.712 416.899 21.553-21.099 20.604 20.993c1.466 1.495 3.405 2.244 5.344 2.244 1.893 0 3.787-.714 5.244-2.144 2.952-2.897 2.996-7.637.099-10.589l-25.841-26.331c-2.895-2.952-7.631-2.997-10.582-.106l-26.897 26.331c-2.955 2.893-3.006 7.634-.113 10.588 2.891 2.954 7.633 3.007 10.589.113z"/><path d="m223.236 448.539 26.897 26.331c1.457 1.427 3.347 2.137 5.238 2.137 1.939 0 3.878-.75 5.344-2.243l25.841-26.331c2.897-2.951 2.853-7.692-.099-10.588-2.95-2.897-7.692-2.853-10.588.099l-20.604 20.993-21.553-21.099c-2.955-2.894-7.696-2.843-10.588.113-2.894 2.953-2.843 7.695.112 10.588z"/></g></g></svg>