<svg height="512" viewBox="0 0 58 60" width="512" xmlns="http://www.w3.org/2000/svg"><g id="035---Charging" fill="none"><g id="Icons" transform="translate(1 11)"><path id="Shape" d="m56 28c-.0612097 1.6310332-.2822682 3.2521289-.66 4.84-.47 2-.34 3.945-.34 12.16 0 1.6568542-1.3431458 3-3 3-.820063.0467646-1.6425145.0300481-2.46-.05-.01.01-.01.01-.02 0-.0512428-.002247-.1018347-.0123654-.15-.03-.1016199-.0157462-.2019052-.0391461-.3-.07-1.2361311-.3990729-2.0728302-1.5510499-2.07-2.85v-3c-.308.1-1.665.4-2.12.49-5.8957661 1.0644582-11.8792839 1.566712-17.87 1.5-6.0593733.0217891-12.1015564-.6458369-18.01-1.99v3c-.0049422 1.6548028-1.3451972 2.9950578-3 3-.82647225.0501497-1.65557496.0367771-2.48-.04-1.4536453-.2326493-2.52226804-1.4878569-2.52-2.96 0-8.9.107-10.262-.34-12.16-.402019-1.6779864-.61997235-3.3947881-.65-5.12.24-2.97 4.02-6.75 4.99-7.72 1-1 6-12 7-13 .72-.72 5.67-.93 8.32-.97v.01c.1 0 1.623-.04 2.35-.04v-2c-.1140197-2.0813159 1.4698758-3.86598681 3.55-4h3.56c2.0801242.13401319 3.6640197 1.9186841 3.55 4v2c.049 0 .377.01.67.01v-.01s9 0 10 1 6 12 7 13 5 5 5 8z" fill="#549414"/><path id="Shape" d="m56 28c-.0612097 1.6310332-.2822682 3.2521289-.66 4.84-.47 2-.34 3.945-.34 12.16 0 1.6568542-1.3431458 3-3 3-.820063.0467646-1.6425145.0300481-2.46-.05-.01.01-.01.01-.02 0-.0512428-.002247-.1018347-.0123654-.15-.03-.1016199-.0157462-.2019052-.0391461-.3-.07-1.2361311-.3990729-2.0728302-1.5510499-2.07-2.85v-3c-.308.1-1.665.4-2.12.49-5.8957661 1.0644582-11.8792839 1.566712-17.87 1.5-6.0593733.0217891-12.1015564-.6458369-18.01-1.99v3c-.0049422 1.6548028-1.3451972 2.9950578-3 3-.82647225.0501497-1.65557496.0367771-2.48-.04-1.4536453-.2326493-2.52226804-1.4878569-2.52-2.96 0-8.9.107-10.262-.34-12.16-.402019-1.6779864-.61997235-3.3947881-.65-5.12.24-2.97 4.02-6.75 4.99-7.72 1-1 6-12 7-13 .72-.72 5.67-.93 8.32-.97v.01c.1 0 1.623-.04 2.35-.04v-2c-.1140197-2.0813159 1.4698758-3.86598681 3.55-4h3.56c2.0801242.13401319 3.6640197 1.9186841 3.55 4v2c.049 0 .377.01.67.01v-.01s9 0 10 1 6 12 7 13 5 5 5 8z" fill="#02a9f4"/><path id="Shape" d="m56 28c-.1261553 1.9585024-.40365 3.9043089-.83 5.82-.226 1.7-.17.9-.17 11.18 0 1.6568542-1.3431458 3-3 3-.820063.0467646-1.6425145.0300481-2.46-.05 1.4269289-.2565861 2.4639688-1.5001908 2.46-2.95 0-11.173-.045-9.492.24-11.63 0-.018.44-2.286.44-2.31.2011652-1.0078944.3082919-2.0322931.32-3.06 0-3-4-7-5-8s-6-12-7-13-10-1-10-1v.01c-.293 0-.621-.01-.67-.01v-2c.1140197-2.0813159-1.4698758-3.86598681-3.55-4h3c2.0801242.13401319 3.6640197 1.9186841 3.55 4v2c.049 0 .377.01.67.01v-.01s9 0 10 1 6 12 7 13 5 5 5 8z" fill="#0377bc"/><path id="Shape" d="m9 42v3c0 1.6568542-1.34314575 3-3 3-.83319844.0562048-1.66971514.0394745-2.5-.05-1.44436324-.2365682-2.50353915-1.4863958-2.5-2.95l-.00000884-6.19c1.86000884 1.758 5.48700884 2.723 8.00000884 3.19z" fill="#607d8b"/><path id="Shape" d="m55 38.81v6.19c0 1.6568542-1.3431458 3-3 3-.8331984.0562048-1.6697151.0394745-2.5-.05-1.4443632-.2365682-2.5035392-1.4863958-2.5-2.95v-3c2.553-.486 6.1-1.409 8-3.19z" fill="#37474f"/><path id="Shape" d="m52.0000088 40.6-.0000088 4.4c.0035392 1.4636042-1.0556368 2.7134318-2.5 2.95-1.4443632-.2365682-2.5035392-1.4863958-2.5-2.95v-3c1.7091925-.2987196 3.3842037-.7677228 5.0000088-1.4z" fill="#607d8b"/><circle id="Oval" cx="28" cy="6" fill="#00bcd4" r="2"/><path id="Shape" d="m14.38 32.44c-.1714919.3451393-.5246111.5624434-.91.56-.91-.01-1.74-.06-2.49-.14-7.6-.76-7.29-4.4-6.73-6.05.17345216-.4716287.6699647-.7412863 1.16-.63 2.67931746.4961432 5.3954709.7670896 8.12.81.3676353.0140902.6995849.2239434.87.55.7925646 1.5389204.7851006 3.3676007-.02 4.9z" fill="#cfd8dc"/><path id="Shape" d="m11.38 32.44c-.0866776.1780062-.2264311.3247474-.4.42-7.6-.76-7.29-4.4-6.73-6.05.03452578-.1080479.09258671-.207093.17-.29 5.736.8 6.449.021 6.98 1.02.7925646 1.5389204.7851006 3.3676007-.02 4.9z" fill="#f5f5f5"/><path id="Shape" d="m42.53 33c-.3843986-.0010675-.7358202-.217327-.91-.56-.8051006-1.5323993-.8125646-3.3610796-.02-4.9.1704151-.3260566.5023647-.5359098.87-.55 2.7246122-.0414652 5.4408865-.3124236 8.12-.81.4900353-.1112863.9865478.1583713 1.16.63.61 1.81.93 6.03-9.22 6.19z" fill="#cfd8dc"/><path id="Shape" d="m42.02 32.86c-.1735689-.0952526-.3133224-.2419938-.4-.42-.8051006-1.5323993-.8125646-3.3610796-.02-4.9.532-1 1.228-.217 6.98-1.02.0774133.082907.1354742.1819521.17.29.56 1.65.87 5.29-6.73 6.05z" fill="#f5f5f5"/><path id="Shape" d="m34.74 23.61c-7.571 9.732-5.562 7.148-12.09 15.55-.0701956.0917246-.1944191.1228464-.2995687.0750511-.1051496-.0477952-.1633829-.1618519-.1404313-.2750511 1.106-5.557.462-2.335 2.73-13.66.0148577-.0727135-.0033595-.1482696-.0497218-.2062226-.0463623-.0579529-.1160767-.0923112-.1902782-.0937774h-2.42c-.307341-.0002375-.597502-.1417889-.7868662-.3838627s-.2568957-.557779-.1831338-.8561373c2.79-11.28 2.59-10.644 2.72-10.72.041-.024 6.523.02 8.53.02.0870113-.0336477.1854654-.0168889.2564441.0436518.0709786.0605406.1030575.1551187.0835559.2463482l-1.83 8.35c-.0160078.07286.0017706.1490517.0483715.2073028.0466008.0582511.1170317.0923209.1916285.0926972h2.65c.3812998-.0007498.7293534.2169005.8956001.5600509.1662468.3431503.1213215.7511879-.1156001 1.0499491z" fill="#fec108"/><path id="Shape" d="m31.74 23.61c-7.66 9.847-5.95 7.65-8.7 11.18l1.9-9.49c.0148577-.0727135-.0033595-.1482696-.0497218-.2062226-.0463623-.0579529-.1160767-.0923112-.1902782-.0937774-2.647 0-2.582.034-2.85-.1-.4313248-.2000923-.6584149-.6795047-.54-1.14 2.79-11.28 2.59-10.644 2.72-10.72 1.42.006 5.473.01 5.68.01.1346621.0312917.2192707.1648842.19.3l-1.83 8.35c-.0172185.0730029.0000959.1498687.0469518.2084386.0468559.0585698.1180461.0923349.1930482.0915614.9627791-.0603686 1.9286816-.0503419 2.89.03.329717.0783469.5961815.3203763.7057828.6410616s.0470109.6751765-.1657828.9389384z" fill="#ffdc00"/></g><g id="Layer_2" fill="#000"><path id="Shape" d="m45.707 17.293c-.987-.987-5.621-1.254-9.707-1.293v-1c-.0033061-2.7600532-2.2399468-4.9966939-5-5h-4c-2.7600532.0033061-4.9966939 2.2399468-5 5v1c-4.086.035-8.72.3-9.707 1.289-1.216 1.216-6.031 11.94-7 13-3.512 3.516-5.293 6.445-5.293 8.711 0 3.016 1 5.218 1 8v9c0 2.209139 1.790861 4 4 4h2c2.209139 0 4-1.790861 4-4v-1.723c10.177 2.293 25.784 2.3 36 0v1.723c0 2.209139 1.790861 4 4 4h2c2.209139 0 4-1.790861 4-4v-9c0-2.746 1-4.971 1-8 0-2.266-1.781-5.195-5.288-8.7-.993-1.087-5.794-11.8-7.005-13.007zm9.813 25.507c-.686 3.423-.52 2.982-.52 13.2 0 1.1045695-.8954305 2-2 2h-2c-1.1045695 0-2-.8954305-2-2v-3c-.0002288-.3135304-.1474915-.6088038-.3977962-.797613-.2503048-.1888092-.5746722-.2492944-.8762038-.163387-.07.019-7.002 1.961-18.726 1.961-11.694 0-18.657-1.942-18.726-1.962-.30170069-.0859555-.62625207-.025352-.8766027.1636883-.25035064.1890403-.3974821.4846054-.3973973.7983117v3c0 1.1045695-.8954305 2-2 2h-2c-1.1045695 0-2-.8954305-2-2 0-10.511.137-9.912-.52-13.2-.29119528-1.2466205-.45205917-2.5201263-.48-3.8 0-.966.611-3.2 4.707-7.293 1.159-1.159 6.093-11.99 6.944-12.953.749-.465 5.439-.754 9.349-.754.5522847 0 1-.4477153 1-1v-2c0-1.6568542 1.3431458-3 3-3h4c1.6568542 0 3 1.3431458 3 3v2c0 .5522847.4477153 1 1 1 3.91 0 8.6.289 9.288.7.993 1.085 5.794 11.794 7.005 13.005 4.096 4.095 4.707 6.329 4.707 7.295-.0279408 1.2798737-.1888047 2.5533795-.48 3.8z"/><path id="Shape" d="m42.632 8.262c.3671509.38393537.970419.41379067 1.3736843.06798264.4032654-.34580802.4657648-.94657215.1423157-1.36798264-3.794378-4.41670903-9.3272324-6.95769251-15.15-6.95769251s-11.355622 2.54098348-15.15 6.95769251c-.3234491.42141049-.2609497 1.02217462.1423157 1.36798264.4032653.34580803 1.0065334.31595273 1.3736843-.06798264 3.4144376-3.97517273 8.3937345-6.26220272 13.634-6.26220272s10.2195624 2.28702999 13.634 6.26220272z"/><path id="Shape" d="m17.384 10.529c-.2254346.2772381-.28584.6536846-.158462.9875357.1273779.3338511.4231874.574387.776.631.3528125.056613.7090274-.0792976.934462-.3565357 2.4620883-3.03094866 6.1590636-4.79085107 10.064-4.79085107s7.6019117 1.75990241 10.064 4.79085107c.3484917.428573.978427.4934917 1.407.145s.4934917-.978427.145-1.407c-2.8420775-3.49786719-7.1090632-5.52879927-11.616-5.52879927s-8.7739225 2.03093208-11.616 5.52879927z"/><path id="Shape" d="m29 20c1.6568542 0 3-1.3431458 3-3s-1.3431458-3-3-3-3 1.3431458-3 3 1.3431458 3 3 3zm0-4c.5522847 0 1 .4477153 1 1s-.4477153 1-1 1-1-.4477153-1-1 .4477153-1 1-1z"/><path id="Shape" d="m14.548 36.993c-2.665476-.0424242-5.32259842-.3100432-7.943-.8-.98450498-.2067776-1.96938566.3498941-2.3 1.3-.5525234 1.4405051-.36777405 3.0599543.495 4.339 2.436 3.45 9.913 3.168 9.682 3.168.7623685.0017948 1.4598617-.4287135 1.8-1.111.9557812-1.8222787.9557812-3.9977213 0-5.82-.3427689-.6440926-1.0046868-1.0548329-1.734-1.076zm-.065 6c-4.128-.065-9.667-.964-8.277-4.841 2.74725607.4900034 5.5266688.7784394 8.316.863.6418575 1.2542188.6272815 2.7435836-.039 3.985z"/><path id="Shape" d="m43.452 36.993c-.7281034.0207185-1.3893588.4297582-1.733 1.072-.9552594 1.8220536-.9552594 3.9969464 0 5.819.3436832.6933611 1.0552203 1.1275193 1.829 1.116 4.978-.079 8.225-1.143 9.652-3.164.8636081-1.2795803 1.0476759-2.9003476.493-4.341-.3284242-.9519318-1.3150603-1.5095957-2.3-1.3-2.6198351.4889377-5.2762632.7558851-7.941.798zm8.348 1.137c1.335 3.947-4.137 4.8-8.283 4.873-.6657336-1.2527341-.6717182-2.7529946-.016-4.011 2.7860271-.0472762 5.5627296-.3356865 8.299-.862z"/><path id="Shape" d="m34.956 32h-1.712l1.63-7.434c.087905-.4056926-.0309852-.8285784-.3174159-1.1290302-.2864307-.3004517-.7031565-.439401-1.1125841-.3709698-9.312-.041-8.526-.073-8.8.052-.3458491.1580907-.6003955.4656829-.691.835l-2.613 10.562c-.1493752.597594-.0150462 1.2306823.364129 1.7161282.3791753.4854459.9608909.7690865 1.576871.7688718h1.5l-2.554 12.765c-.1103048.5674704.182256 1.136682.7078948 1.377293s1.147673.0900549 1.5051052-.364293l12.094-15.55c.4689635-.6028594.5536249-1.4201776.218186-2.1063605-.3354388-.6861828-1.0324019-1.1214058-1.796186-1.1216395zm-10.145 15.043 2.11-10.549c.0728949-.3662379-.0217662-.7458859-.2580729-1.0350278-.2363067-.2891418-.5895082-.4574927-.9629271-.4589722h-2.414l2.466-9.97 6.971.031-1.627 7.42c-.0813349.369082.0086848.7551471.2448753 1.050191s.5931897.4673848.9711247.468809h2.643z"/></g></g></svg>