<svg id="Layer_1" enable-background="new 0 0 512.02 512.02" height="512" viewBox="0 0 512.02 512.02" width="512" xmlns="http://www.w3.org/2000/svg"><g><g clip-rule="evenodd" fill-rule="evenodd"><path d="m325.07 287.913-127.464-127.464c-21.762 21.763-58.156 28.895-79.918 50.657-26.783 26.783-53.566 53.566-80.349 80.35-5.826 5.826-11.653 11.652-17.479 17.479-11.24 11.24-11.24 29.633 0 40.873s29.633 11.24 40.872 0l-6.943 6.943c-11.24 11.24-11.24 29.632.001 40.872s29.633 11.24 40.873 0l-7.376 7.375c-11.24 11.24-11.24 29.633 0 40.873 11.241 11.24 29.633 11.24 40.873 0l7.375-7.376c-11.24 11.24-11.24 29.633 0 40.873s29.633 11.24 40.872 0l13.98-13.98 54.841-54.841c4.298 2.506 5.717.656 9.982 10.133 3.041 6.758 16.615 34.26 39.406 55.717 9.169 8.632 19.829 16.287 31.896 21.218 42.06 17.19 55.477-20.931 38.286-38.853-.482-.503-.975-1.022-1.478-1.558-17.425-18.56-46.596-56.587-39.486-94.269 4.788-25.373 2.176-49.384 1.236-75.022z" fill="#ffdcd5"/><path d="m197.606 160.449 127.464 127.464c8.047 8.047 21.215 8.047 29.262 0l44.946-44.946-156.726-156.725-44.946 44.946c-8.046 8.046-8.047 21.214 0 29.261z" fill="#ffc144"/><path d="m432.052 78.518c-33.568-33.568-74.795-54.808-118.056-63.721l-.014.014-71.43 71.43 156.725 156.725 70.611-70.611 14.388-14.388c-11.419-28.934-28.827-56.052-52.224-79.449z" fill="#ffda8f"/><g fill="#6d91ac"><path d="m242.552 86.242 42.111-42.111 29.333-29.333c-74.538-15.356-155.114 5.884-212.951 63.721-57.834 57.834-79.062 138.404-63.706 212.937 26.783-26.784 53.567-53.567 80.349-80.35 21.763-21.762 58.156-28.894 79.918-50.657-8.047-8.047-8.047-21.215 0-29.261z"/><path d="m399.277 242.967-44.946 44.946c-8.047 8.047-21.215 8.047-29.262 0 .94 25.638 3.553 49.649-1.235 75.024-7.11 37.682 22.06 75.709 39.487 94.268 24.91-11.303 48.247-27.195 68.731-47.679 68.008-68.008 85.416-167.455 52.224-251.558l-14.388 14.388z"/><path d="m294.616 476.397c-22.791-21.457-36.365-48.958-39.406-55.717-4.265-9.477-5.684-7.627-9.982-10.133l-54.841 54.841c33.598 11.531 69.295 15.205 104.229 11.009z"/></g></g><g><path d="m510.606 244.016c0-65.189-25.386-126.478-71.482-172.574-82.487-82.486-212.424-95.04-308.961-29.849-4.577 3.091-5.782 9.307-2.691 13.884 3.09 4.575 9.306 5.783 13.884 2.69 45.793-30.923 99.775-42.784 151.704-36.58l-102.525 102.525c-5.78 5.78-8.964 13.488-8.964 21.702 0 4.552.982 8.947 2.838 12.947-8.891 6.961-19.795 12.383-31.213 18.056-15.015 7.461-30.542 15.175-42.58 27.212l-66.516 66.517c-6.24-53.085 6.694-107.463 36.583-151.73 3.091-4.577 1.886-10.793-2.691-13.884-4.579-3.091-10.794-1.885-13.884 2.692-18.405 27.257-30.907 57.499-37.161 89.887-5.81 30.092-5.947 60.552-.433 90.621l-13.726 13.726c-15.167 15.167-15.167 39.847 0 55.016 6.599 6.599 14.998 10.326 23.63 11.183-3.05 12.732.383 26.716 10.3 36.633 6.517 6.517 14.792 10.233 23.312 11.15-3.248 12.855.146 27.06 10.185 37.098 7.325 7.325 17.094 11.359 27.507 11.359 3.284 0 6.503-.401 9.602-1.181.933 8.824 4.806 16.984 11.139 23.318 7.325 7.325 17.094 11.359 27.507 11.359s20.183-4.034 27.507-11.359l9.638-9.638c23.728 7.452 48.706 11.254 73.662 11.254 8.169 0 16.333-.432 24.451-1.249 9.173 8.097 19.687 15.239 31.499 20.067 9.092 3.716 16.86 5.152 23.437 5.152 17.946 0 27.02-10.693 29.905-14.937 7.201-10.592 7.779-24.636 2.289-36.059 22.366-11.524 42.767-26.435 60.764-44.432 46.098-46.097 71.484-107.385 71.484-172.576zm-85.625-158.431c20.753 20.753 36.566 44.602 47.459 70.07l-73.163 73.164-142.582-142.583 60.434-60.435c39.783 9.204 77.351 29.282 107.852 59.784zm-220.303 52.67 37.875-37.875 142.582 142.582-37.875 37.875c-4.168 4.167-10.952 4.169-15.119 0l-.042-.042c-.086-.085-.167-.174-.256-.256l-127.165-127.166c-4.169-4.168-4.169-10.95 0-15.118zm4.604 322.377 36.51-36.509c.096.207.196.426.3.656 1.624 3.608 10.838 23.281 27.118 43.169-21.52.615-43.15-1.863-63.928-7.316zm150.25 25.207c-4.89 7.193-15.545 8.111-29.236 2.516-40.78-16.667-64.957-69.54-65.966-71.782-3.703-8.229-6.783-11.639-12.676-14.032-.66-.268-.995-.407-1.388-.636-3.925-2.29-8.896-1.644-12.108 1.567l-68.821 68.82c-3.547 3.548-8.293 5.501-13.365 5.501s-9.818-1.953-13.365-5.501c-3.547-3.547-5.501-8.294-5.501-13.365s1.954-9.817 5.5-13.364c3.905-3.905 3.906-10.237 0-14.143-3.904-3.903-10.237-3.904-14.142 0l-7.376 7.375c-7.369 7.371-19.361 7.371-26.73 0-7.37-7.369-7.369-19.361 0-26.73l7.375-7.375c3.905-3.905 3.906-10.236 0-14.143-3.904-3.903-10.236-3.904-14.142 0-7.37 7.369-19.361 7.368-26.731-.001-3.547-3.547-5.501-8.293-5.501-13.364s1.954-9.818 5.5-13.365l6.943-6.942c3.905-3.905 3.906-10.236 0-14.143-3.904-3.903-10.236-3.904-14.142 0-7.371 7.37-19.362 7.367-26.73-.001-3.548-3.547-5.501-8.294-5.501-13.364 0-5.071 1.954-9.818 5.501-13.365l97.828-97.829c9.725-9.725 23.137-16.388 37.337-23.443 12.056-5.989 24.436-12.148 35.081-20.571l118.057 118.057c.154 3.606.33 7.178.503 10.661.992 19.963 1.929 38.818-1.729 58.201-8.42 44.63 27.667 88.02 43.574 104.604 5.139 5.354 5.995 14.208 1.951 20.157zm6.214-40.863c-15.123-17.329-37.895-49.399-32.085-80.19 3.975-21.067 3.114-41.401 2.141-61.086 1.294.164 2.595.254 3.898.254 7.858-.001 15.719-2.992 21.702-8.975l118.683-118.684c24.342 77.198 5.982 165.068-55.104 226.153-17.448 17.45-37.354 31.73-59.235 42.528z"/><path d="m341.204 254.467c2.4 0 4.808-.858 6.724-2.601l.005-.005c4.087-3.715 4.385-10.037.67-14.124-3.715-4.086-10.042-4.384-14.129-.67-4.087 3.715-4.388 10.04-.673 14.126 1.974 2.172 4.684 3.274 7.403 3.274z"/><path d="m101.045 88.513c5.523 0 10-4.478 10-10s-4.477-10-10-10h-.007c-5.523 0-9.996 4.478-9.996 10s4.48 10 10.003 10z"/></g></g></svg>