<svg id="Capa_1" enable-background="new 0 0 512 512" height="512" viewBox="0 0 512 512" width="512" xmlns="http://www.w3.org/2000/svg"><g><g><path d="m385.95 15c0 8.28-6.72 15-15 15h-12.19l-12.71 78.23c-9.58-3.18-19.29-5.84-29.11-7.97l14.25-87.67c1.18-7.26 7.45-12.59 14.81-12.59h24.95c8.28 0 15 6.72 15 15z" fill="#cfd7e6"/><path d="m195.06 100.28c-9.82 2.13-19.53 4.79-29.11 7.97l-12.71-78.25h-12.19c-8.28 0-15-6.72-15-15s6.72-15 15-15h24.95c7.36 0 13.63 5.33 14.81 12.59z" fill="#e1e6f0"/></g><path d="m271 31h-30c-8.284 0-15 6.716-15 15s6.716 15 15 15v33.12c9.743-.507 19.821-.533 30 0v-33.12c8.284 0 15-6.716 15-15s-6.716-15-15-15z" fill="#b3f2ff"/><path d="m286 46c0 8.28-6.72 15-15 15v33.12c-5.03-.26-10.05-.39-15-.39v-62.73h15c8.28 0 15 6.72 15 15z" fill="#83e2ff"/><path d="m355.568 106.237c-64.175-23.344-134.861-23.344-199.036 0-.032.012-.066.024-.102.038-48.051 17.516-80.333 63.632-80.341 114.78l-.039 215.945c0 41.355 33.645 75 75 75h209.9c41.355 0 75-33.645 75-74.997l.039-215.919c.008-51.192-32.311-97.346-80.421-114.847z" fill="#f3f5f9"/><path d="m435.99 221.08-.04 215.92c0 41.36-33.64 75-75 75h-104.95v-423.27c33.73-.01 67.46 5.83 99.57 17.51 48.11 17.5 80.43 63.65 80.42 114.84z" fill="#e1e6f0"/><path d="m436 361h-360c-8.284 0-15 6.716-15 15s6.716 15 15 15h360c8.284 0 15-6.716 15-15s-6.716-15-15-15z" fill="#e1e6f0"/><path d="m451 376c0 8.28-6.72 15-15 15h-180v-30h180c8.28 0 15 6.72 15 15z" fill="#cfd7e6"/><path d="m312.213 244.5 19.393-19.394c5.858-5.857 5.858-15.355 0-21.213-5.857-5.857-15.355-5.857-21.213 0l-25.606 25.607h-13.787v-13.787l25.606-25.606c5.858-5.857 5.858-15.355 0-21.213-5.857-5.857-15.355-5.857-21.213 0l-19.393 19.393-19.394-19.394c-5.857-5.857-15.355-5.857-21.213 0s-5.858 15.355 0 21.213l25.607 25.607v13.787h-13.787l-25.606-25.606c-5.857-5.857-15.355-5.857-21.213 0s-5.858 15.355 0 21.213l19.393 19.394-19.393 19.394c-5.858 5.857-5.858 15.355 0 21.213 5.859 5.858 15.355 5.858 21.213 0l25.606-25.606h13.787v13.787l-25.606 25.606c-5.858 5.857-5.858 15.355 0 21.213 5.857 5.857 15.355 5.857 21.213 0l19.393-19.395 19.394 19.394c5.858 5.858 15.355 5.858 21.213 0 5.858-5.857 5.858-15.355 0-21.213l-25.607-25.607v-13.787h13.787l25.606 25.606c5.858 5.858 15.355 5.858 21.213 0 5.858-5.857 5.858-15.355 0-21.213z" fill="#73d0ff"/><path d="m331.61 263.89c5.85 5.86 5.85 15.36 0 21.22-5.86 5.85-15.36 5.85-21.22 0l-25.6-25.61h-13.79v13.79l25.61 25.6c5.85 5.86 5.85 15.36 0 21.22-5.86 5.85-15.36 5.85-21.22 0l-19.39-19.4v-112.42l19.39-19.4c5.86-5.85 15.36-5.85 21.22 0 5.85 5.86 5.85 15.36 0 21.22l-25.61 25.6v13.79h13.79l25.6-25.61c5.86-5.85 15.36-5.85 21.22 0 5.85 5.86 5.85 15.36 0 21.22l-19.4 19.39z" fill="#66b3ff"/></g></svg>